<?xml version="1.0" encoding="UTF-8" standalone="no"?>
<svg
   version="1.1"
   width="257.95279pt"
   height="155.9055pt"
   id="svg22"
   viewBox="0 0 257.95279 155.9055"
   sodipodi:docname="logo (2).cdr"
   xmlns:inkscape="http://www.inkscape.org/namespaces/inkscape"
   xmlns:sodipodi="http://sodipodi.sourceforge.net/DTD/sodipodi-0.dtd"
   xmlns="http://www.w3.org/2000/svg"
   xmlns:svg="http://www.w3.org/2000/svg">
  <defs
     id="defs26" />
  <sodipodi:namedview
     id="namedview24"
     pagecolor="#ffffff"
     bordercolor="#000000"
     borderopacity="0.25"
     inkscape:showpageshadow="2"
     inkscape:pageopacity="0.0"
     inkscape:pagecheckerboard="0"
     inkscape:deskcolor="#d1d1d1"
     inkscape:document-units="pt" />
  <path
     d="m 42.7137,76.9303 h 10.2371 l 3.9487,15.3288 3.9199,-15.3288 h 10.2322 v 25.1931 H 64.676 V 82.9108 l -4.9134,19.2126 H 53.9922 L 49.0893,82.9108 v 19.2126 h -6.3756 z"
     style="fill:#1b1918;fill-rule:evenodd"
     id="path2" />
  <path
     d="m 91.5065,97.9648 h -8.8386 l -1.2277,4.1586 h -7.9479 l 9.4688,-25.1931 h 8.491 l 9.4675,25.1931 H 92.767 Z m -1.6146,-5.4473 v 0 l -2.7807,-9.0567 -2.7516,9.0567 z"
     style="fill:#1b1918;fill-rule:evenodd"
     id="path4" />
  <path
     d="m 119.5305,91.8128 6.823,2.0619 c -0.4585,1.9131 -1.1802,3.512 -2.1656,4.7948 -0.9853,1.2828 -2.2088,2.2514 -3.669,2.904 -1.4608,0.6535 -3.3201,0.9798 -5.5762,0.9798 -2.739,0 -4.976,-0.3978 -6.711,-1.1939 -1.7357,-0.7953 -3.2342,-2.1952 -4.494,-4.199 -1.2605,-2.0035 -1.8905,-4.5675 -1.8905,-7.6936 0,-4.1675 1.109,-7.3698 3.325,-9.6085 2.2177,-2.2386 5.3535,-3.3578 9.4096,-3.3578 3.1735,0 5.6679,0.6421 7.4839,1.9251 1.8153,1.2828 3.1644,3.2536 4.0472,5.9114 l -6.8744,1.53 c -0.2404,-0.7683 -0.4923,-1.3294 -0.7559,-1.6845 -0.4355,-0.5958 -0.968,-1.0536 -1.598,-1.3752 -0.6302,-0.3198 -1.3351,-0.4811 -2.1136,-0.4811 -1.7655,0 -3.1172,0.7096 -4.0563,2.1288 -0.7103,1.0526 -1.0654,2.7069 -1.0654,4.9606 0,2.7916 0.4233,4.7061 1.2716,5.7413 0.8483,1.0358 2.0397,1.553 3.5743,1.553 1.4897,0 2.6154,-0.4178 3.3771,-1.254 0.7618,-0.8362 1.315,-2.0508 1.6582,-3.6431 z"
     style="fill:#1b1918;fill-rule:evenodd"
     id="path6" />
  <path
     d="m 130.1337,76.9303 h 7.7844 v 18.989 h 12.1502 v 6.2041 h -19.9346 z"
     style="fill:#1b1918;fill-rule:evenodd"
     id="path8" />
  <path
     d="m 169.0977,97.9648 h -8.8389 l -1.2281,4.1586 h -7.9482 l 9.4691,-25.1931 h 8.4916 l 9.4666,25.1931 h -8.1516 z m -1.6147,-5.4473 v 0 l -2.7813,-9.0567 -2.7518,9.0567 z"
     style="fill:#1b1918;fill-rule:evenodd"
     id="path10" />
  <path
     d="m 181.2944,76.9303 h 7.8014 v 25.1931 h -7.8014 z"
     style="fill:#1b1918;fill-rule:evenodd"
     id="path12" />
  <path
     d="m 194.7323,76.9303 h 7.2695 l 9.4859,13.9378 V 76.9303 h 7.3387 v 25.1931 h -7.3387 l -9.4344,-13.8328 v 13.8328 h -7.321 z"
     style="fill:#1b1918;fill-rule:evenodd"
     id="path14" />
  <path
     d="m 22.9995,56.5532 v 45.5702 c 5.6474,0 11.2948,0 16.9423,0 V 95.7478 H 29.3751 V 62.9288 H 65.396 v 10.5674 h 6.3756 c 0,-5.6477 0,-11.2954 0,-16.943 -16.2574,0 -32.5148,0 -48.7721,0 z"
     style="fill:#1b1918;fill-rule:evenodd;stroke:#1b1918;stroke-width:0.5;stroke-linecap:butt;stroke-linejoin:miter;stroke-dasharray:none"
     id="path16" />
  <text
     x="221.01511"
     y="73.220001"
     id="text20"><tspan
       font-family="'Franklin Gothic Heavy'"
       font-size="10.5px"
       fill="#1b1918"
       id="tspan18">TM</tspan></text>
</svg>
